<?xml version="1.0" encoding="utf-8"?>
<!-- Generator: Adobe Illustrator 23.0.1, SVG Export Plug-In . SVG Version: 6.00 Build 0)  -->
<svg version="1.1" id="Layer_1" xmlns="http://www.w3.org/2000/svg" xmlns:xlink="http://www.w3.org/1999/xlink" x="0px" y="0px"
	 viewBox="0 0 146 50" style="enable-background:new 0 0 146 50;" xml:space="preserve">
<style type="text/css">
	.st0{fill-rule:evenodd;clip-rule:evenodd;fill:#EA118B;}
	.st1{fill-rule:evenodd;clip-rule:evenodd;fill:#2B2728;}
	.st2{fill-rule:evenodd;clip-rule:evenodd;fill:#FFFFFF;}
</style>
<g>
	<path class="st0" d="M132.3,20.7c4.1,0,8.2,0,12.3,0v-1.3c-0.2-0.4-0.1-0.9-0.2-1.3c-0.3-1.6-0.8-3.2-1.5-4.6
		c-1.1-2.1-2.7-3.6-4.9-3.9c-1.5-0.2-2.9,0-4.2,0.7c-1.2,0.6-2.2,1.5-3,2.7c-0.9,1.3-1.6,2.7-2.1,4.3c-0.5,1.7-0.8,3.5-0.8,5.4
		c0,1.3,0,2.7,0.2,4c0.3,1.6,0.8,3.2,1.6,4.6c0.6,1.1,1.3,2.1,2.3,2.9c1.7,1.3,3.6,1.6,5.5,1.3c2.2-0.4,3.8-1.8,5.1-3.8
		c0.1-0.2,0.1-0.2-0.1-0.3c-0.2-0.1-0.4-0.2-0.6-0.3c-0.1-0.1-0.1,0-0.2,0.1c-0.5,0.8-1.1,1.5-1.8,2.1c-0.9,0.8-1.9,1.1-3,0.8
		c-1.3-0.3-2.2-1.1-2.9-2.3c-1.4-2.4-1.8-5-2-7.8c-0.1-1,0-1.9,0-2.9C132,20.8,132.1,20.7,132.3,20.7z M132.3,18.6
		c0.3-1.9,0.8-3.8,1.8-5.4c0.6-1,1.2-1.8,2.2-2.2c1.6-0.6,3.1,0,4.1,1.8c0.7,1.3,1.1,2.7,1.3,4.2c0.1,0.6,0.1,1.2,0.1,1.8
		c0,0.3-0.1,0.3-0.3,0.3c-1.5,0-3,0-4.6,0h-4.4C132.2,19.1,132.2,19.1,132.3,18.6z"/>
	<path class="st0" d="M24.2,1c0.4,0.2,0.7,0.1,1.1,0.2c1.4,0.2,2.8,0.6,4.2,1.1c2.4,0.9,4.7,2.3,6.6,4.1c2.1,1.9,3.9,4.2,5.2,6.9
		c1,2,1.6,4.1,2,6.3c0.1,0.8,0.2,1.7,0.3,2.6c0.1,0.8,0.1,1.6,0,2.3c-0.1,2.1-0.4,4.2-1,6.2c-0.7,2.6-1.8,5.1-3.3,7.3
		c-1.5,2.2-3.2,4-5.3,5.5c-0.3,0.2-0.3,0-0.4-0.2c-0.2-0.2-0.2-0.4,0.1-0.6c1.4-0.9,2.5-2,3.6-3.3c2.5-2.9,4.1-6.3,5-10.2
		c0.5-2.3,0.7-4.7,0.6-7c-0.4-5.8-2.6-10.7-6.4-14.6c-2.7-2.8-5.9-4.6-9.5-5.5c-1.8-0.5-3.7-0.6-5.6-0.5C17.2,2.2,13.4,3.9,10.1,7
		c-3.6,3.3-6,7.6-6.9,12.8c-0.4,2-0.5,4.1-0.3,6.1c0.6,6,2.8,11,6.8,15.1c1.1,1.1,2.3,2.1,3.6,2.9c0.3,0.1,0.2,0.3,0.1,0.5
		c-0.1,0.2-0.2,0.4-0.5,0.2c-0.7-0.4-1.4-0.9-2.1-1.5c-0.6-0.5-1.2-1.1-1.8-1.6c-0.6-0.6-1.2-1.2-1.7-1.9c-1-1.3-1.9-2.7-2.6-4.2
		c-0.4-0.9-0.8-1.9-1.2-2.8C3,31,2.7,29.6,2.4,28.1c-0.2-0.9-0.2-1.9-0.3-2.8c-0.1-0.6,0-1.3,0-1.9c0-1.8,0.3-3.6,0.7-5.3
		c0.6-2.4,1.6-4.7,2.9-6.8c0.6-1,1.3-1.9,2-2.8C9,6.9,10.4,5.6,12,4.5c2.1-1.5,4.3-2.5,6.7-3c0.9-0.2,1.8-0.3,2.7-0.4
		c0,0,0.1,0,0.1-0.1C22.4,1,23.3,1,24.2,1z"/>
	<path class="st0" d="M14.3,36.8L14.3,36.8L14.3,36.8C14.4,36.8,14.4,36.8,14.3,36.8C14.4,36.8,14.4,36.8,14.3,36.8z M31.4,36.9
		L31.4,36.9C31.4,36.9,31.4,36.9,31.4,36.9C31.4,36.9,31.4,36.9,31.4,36.9z M39.8,20.8c-0.6-3.7-2-6.9-4.3-9.6
		c-2.9-3.5-6.5-5.5-10.8-6c-2-0.3-4.1-0.1-6.1,0.5c-3.8,1.1-6.8,3.3-9.3,6.7c-2.1,3-3.3,6.4-3.6,10.2C5.6,24.2,5.7,26,6,27.7
		c0.6,3.6,2,6.7,4.2,9.3c1.2,1.5,2.7,2.8,4.3,3.8c0.9,0.6,1.9,1.1,2.9,1.5c0.2,0.1,0.2,0,0.2-0.2c0-0.2-0.1-0.4-0.1-0.6
		c-0.2-0.7-0.7-1.1-1.2-1.5c-1.6-1.3-3.3-2.2-5-3.2c-0.3-0.2-0.5-0.4-0.6-0.6c-0.8-1.6-1.5-3.2-2.3-4.9c-0.3-0.6-0.4-1.2-0.3-1.9
		c0.1-1.4,0.3-2.9,0.2-4.3c0-0.2,0-0.4,0.1-0.5c0.2-0.1,0.4-0.1,0.6,0.1c0.2,0.2,0.5,0.5,0.6,0.9c0.2,0.7,0.2,1.4,0.3,2
		c0.1,0.6,0.1,1.1,0.2,1.7c0,0.1,0.1,0.4-0.2,0.4c-0.5,0.1-0.8,0.4-0.4,1C10.3,31.9,11,33,12,34c0.8,0.8,1.6,1.7,2.2,2.8
		c0,0.1,0.1,0.1,0.1,0.1c0-0.1-0.1-0.2-0.1-0.3c-0.5-0.8-1-1.4-1.6-2.1c-0.5-0.6-1.1-1.2-1.6-1.9c-0.4-0.6-0.9-1.3-1.3-1.9
		C9.6,30.3,9.7,30,9.9,30c0.3,0,0.6-0.1,0.9,0c0.7,0.1,1.2,0.5,1.7,1c0.7,0.7,1.4,1.5,2.1,2.3c0.3,0.3,0.6,0.6,1,0.6
		c0.4,0,0.9,0.1,1.3,0.1c0.8,0,1.5,0.2,2.2,0.5c0.7,0.4,1.4,0.9,2,1.5c0.8,0.8,1.5,1.6,1.8,2.8c0,0.1,0,0.2,0.1,0.2
		c0.1-0.6,0.3-1.1,0.7-1.6c0.7-1.2,1.7-2,2.9-2.7c1-0.6,2.2-0.7,3.3-0.8c0.4,0,0.8-0.1,1.1-0.4c0.4-0.3,0.8-0.7,1.1-1.2
		c0.4-0.6,0.9-1.1,1.4-1.5c0.6-0.6,1.3-1,2.2-0.9c0.5,0.1,0.5,0.2,0.3,0.7c-0.9,1.4-1.9,2.8-3,4c-0.6,0.7-1.2,1.4-1.5,2.2
		c0.2,0,0.2-0.2,0.3-0.3c0.6-0.9,1.2-1.7,2-2.4c1-1,1.8-2.2,2.6-3.4c0.3-0.5,0.2-0.8-0.3-0.9c-0.2,0-0.3-0.1-0.2-0.3
		c0.1-1.1,0.2-2.1,0.4-3.2c0.1-0.5,0.2-1.1,0.6-1.5c0.2-0.2,0.4-0.3,0.6-0.1c0.2,0.1,0.2,0.4,0.2,0.6c-0.1,1.3,0.1,2.6,0.2,4
		c0,0.5,0.2,0.9,0,1.4c-0.8,1.9-1.6,3.8-2.6,5.6c-0.1,0.3-0.3,0.4-0.5,0.6c-1,0.6-2,1.2-3,1.8c-1,0.6-1.9,1.2-2.7,2
		c-0.5,0.5-0.7,1.1-0.7,1.8c0.8-0.2,1.6-0.6,2.3-1c2.3-1.3,4.2-3,5.8-5.2c2.2-3.1,3.5-6.7,3.7-10.6C40.1,23.9,40.1,22.3,39.8,20.8z
		 M30.2,27c-0.1,2.3-0.8,4.4-2.4,6c-1.2,1.2-2.6,1.9-4.1,2.1c-4,0.6-6.9-2.6-7.4-6.2c-0.4-2.8,0.2-5.2,1.5-7.5c0.6-1.1,1.4-2,2-3.2
		c0.6-1.2,1.2-2.4,1.4-3.8c0.2-1.5,0.2-3-0.2-4.6c0-0.1,0-0.2-0.1-0.3c0.6,0.4,1.2,0.9,1.7,1.4c2.5,2.4,4.6,5.1,6.1,8.4
		C29.9,21.7,30.4,24.3,30.2,27z"/>
	<path class="st0" d="M98.4,19.4c-0.1-1.2-0.2-2.3-0.5-3.4c-0.4-1.9-1-3.7-2.4-5c-0.9-0.8-1.9-1.2-3-1.4c-0.8-0.1-1.5-0.1-2.2,0.1
		c-0.9,0.2-1.7,0.5-2.4,1.2c-0.8,0.7-1.3,1.6-1.7,2.7c0-0.1,0-0.2,0-0.4V4.6c0-0.6,0-1.2,0-1.9c0-0.2,0-0.3-0.2-0.2
		c-1.1,0.4-2.2,0.8-3.3,1.1c-0.3,0.1-0.3,0.2-0.3,0.5c0,6.5,0,13,0,19.4c0,3.8,0,7.6,0,11.4c0,0.3,0.1,0.4,0.3,0.4
		c0.8,0,1.6,0,2.5,0c0.2,0,0.3-0.1,0.4-0.3c0.2-0.8,0.4-1.5,0.6-2.3c0-0.1,0-0.2,0.1-0.2c0.1,0,0.1,0.1,0.1,0.1
		c0.6,0.9,1.2,1.6,2.1,2.1c1.1,0.7,2.3,0.7,3.5,0.5c1.3-0.2,2.5-0.9,3.4-2c0.9-1,1.5-2.2,2-3.6c0.8-2.3,1.1-4.6,1.2-7.1
		C98.5,21.5,98.5,20.4,98.4,19.4z M93.8,30.6c-0.2,0.7-0.5,1.5-0.9,2.1c-0.9,1.5-2.1,1.9-3.6,1.3c-1.6-0.7-2.7-2.1-3.1-4
		c-0.1-0.3-0.1-0.7-0.1-1c0-1.9,0-3.8,0-5.7c0-1.9,0-3.7,0-5.6c0-1.6,0.3-3.1,1.1-4.5c0.8-1.4,1.8-2,3.3-1.9
		c1.3,0.1,2.2,0.9,2.8,2.2c0.5,1,0.7,2.1,0.9,3.2c0.3,2.3,0.5,4.7,0.4,7C94.6,26.1,94.4,28.4,93.8,30.6z"/>
	<path class="st0" d="M109.3,23.1c0-4,0-7.9,0-11.9c0-0.2,0-0.4,0.3-0.4c1.1-0.4,2.3-0.8,3.4-1.2c0.2-0.1,0.2,0.1,0.2,0.2
		c0,0.8,0,1.6,0,2.4c0,0.1,0,0.3,0.1,0.3c0.1,0,0.1-0.1,0.2-0.2c0.7-1.5,2-2.3,3.4-2.6c1.2-0.3,2.4-0.2,3.5,0.2
		c2,0.7,3.5,2.5,3.8,4.8c0.1,0.5,0.1,1.1,0.1,1.6c0,6.2,0,12.4,0,18.5c0,0.5,0,0.5-0.4,0.5c-1,0-2.1,0-3.1,0c-0.3,0-0.4-0.1-0.4-0.4
		c0-6,0-12,0-18c0-1.3-0.2-2.6-0.8-3.7c-0.5-1-1.3-1.8-2.4-2c-1.5-0.2-2.6,0-3.6,2c-0.4,0.8-0.6,1.7-0.6,2.6c0,6.4,0,12.7,0,19.1
		c0,0.3-0.1,0.4-0.4,0.4c-1.1,0-2.1,0-3.2,0c-0.3,0-0.3-0.1-0.3-0.4C109.3,31,109.3,27.1,109.3,23.1z"/>
	<path class="st0" d="M78.8,16.2c0-0.5,0-1.1-0.1-1.6c-0.3-2.1-1.5-3.5-3.2-4.4c-0.8-0.4-1.7-0.6-2.6-0.7c-1-0.1-2,0-3,0.2
		c-0.8,0.2-1.5,0.5-2.1,0.9c-0.9,0.5-1.7,1.3-2.4,2.2c-0.1,0.1,0,0.2,0.1,0.2c0.3,0.1,0.5,0.3,0.8,0.4c0.2,0.1,0.3,0,0.4-0.1
		c0.3-0.4,0.7-0.8,1.1-1.2c1.2-1.1,2.6-1.4,4.1-0.9c0.8,0.3,1.5,0.9,2,1.6c0.7,1.1,1.1,2.3,1.2,3.6c0,0.7,0,1.5,0,2.2
		c0,0.1,0,0.2,0,0.3c-0.2,0.4-0.5,0.8-0.8,1.1c-0.7,0.6-1.6,1-2.5,1.3c-1.3,0.4-2.7,0.7-4,1.2c-1.5,0.5-2.7,1.5-3.3,3.2
		c-0.4,1.1-0.5,2.3-0.5,3.5c0,0.4,0,0.8,0.1,1.1c0.3,1.4,0.9,2.6,1.9,3.5c0.7,0.6,1.4,1,2.2,1.3c1.2,0.3,2.3,0.4,3.5,0.1
		c1.1-0.3,2-0.8,2.7-1.8c0.3-0.4,0.5-0.8,0.7-1.2c0.2,1,0.5,1.9,0.7,2.9c0.1,0.3,0.2,0.4,0.4,0.4c0.8,0,1.6,0,2.4,0
		c0.3,0,0.4-0.1,0.4-0.4C78.8,28.7,78.8,22.4,78.8,16.2z M75,28.8c-0.1,1.6-0.6,3.2-1.7,4.4c-1,1.1-2.6,1.2-3.7,0.1
		c-1.2-1.1-1.8-2.6-2-4.3c-0.1-0.9,0-1.9,0.3-2.8c0.3-1.1,0.9-1.9,1.9-2.4c0.8-0.4,1.6-0.7,2.4-1.1c1.1-0.5,2-1.1,2.6-2.2
		c0,0,0,0,0.1-0.1c0.1,0.1,0,0.2,0,0.3C75,23.5,75.1,26.2,75,28.8z"/>
	<path class="st0" d="M54.2,35.5c-1,0.1-2.2-0.2-3.2-0.9c-0.7-0.4-1.3-0.9-1.8-1.6c-0.3-0.5-0.6-0.9-0.9-1.5
		c-0.1-0.1-0.1-0.2,0.1-0.3c0.3-0.2,0.7-0.5,1-0.7c0.2-0.1,0.2-0.1,0.3,0.1c0.5,1,1.1,1.9,2,2.6c1.4,1,2.8,1.2,4.3,0.4
		c1.1-0.6,1.8-1.7,2.1-3.1c0.3-1.4,0.2-2.7,0-4.1c-0.3-1.5-0.9-2.8-1.8-4c-0.4-0.5-0.8-1-1.3-1.4c-0.4-0.3-0.7-0.7-1.1-1
		c-0.5-0.5-1.1-1-1.6-1.5c-0.3-0.3-0.7-0.6-1-1c-0.4-0.4-0.8-0.8-1.1-1.2c-0.7-0.8-1.3-1.8-1.7-2.9c-0.3-0.8-0.5-1.7-0.6-2.5
		c-0.1-1.8,0.1-3.4,1.1-4.9c1.2-1.7,2.8-2.8,4.7-3.2c1.4-0.3,2.8-0.3,4.1,0.2c1.1,0.4,2,1.2,2.8,2.2C60.8,5.4,61,5.6,61,5.8
		c-0.1,0.2-0.3,0.3-0.5,0.5c-0.2,0.2-0.3,0.4-0.5,0.4c-0.2,0-0.3-0.3-0.4-0.5c-0.5-0.7-1-1.3-1.7-1.6c-0.7-0.4-1.5-0.6-2.3-0.5
		c-1,0.1-1.8,0.5-2.5,1.3c-0.7,0.9-1.1,2-1.2,3.2c-0.2,2,0.3,3.7,1.3,5.4c0.6,1,1.3,1.8,2.1,2.5c0.7,0.6,1.3,1.3,2,1.9
		c0.7,0.7,1.4,1.4,2.1,2.1c0.6,0.6,1.1,1.4,1.5,2.2c0.6,1.1,1,2.3,1.2,3.6c0.2,1.7,0.2,3.4-0.5,5c-0.6,1.3-1.6,2.3-2.7,3
		c-0.8,0.6-1.8,0.9-2.7,1.2C55.5,35.5,55,35.5,54.2,35.5z"/>
	<path class="st0" d="M105.2,22.9c0,4,0,8,0,12.1c0,0.3-0.1,0.4-0.3,0.4c-1.1,0-2.1,0-3.2,0c-0.2,0-0.3,0-0.3-0.3
		c0-7.6,0-15.3,0-22.9c0-0.2,0.1-0.3,0.3-0.4c1.1-0.4,2.2-0.7,3.3-1.1c0.3-0.1,0.3,0,0.3,0.3c0,3,0,6.1,0,9.1
		C105.2,20.9,105.2,21.9,105.2,22.9z"/>
	<path class="st0" d="M104.2,3.6c0,1.4-1,2.5-2.2,2.5c-1.2,0-2.2-1.1-2.2-2.5c0-1.4,0.9-2.6,2.2-2.6C103.3,1.1,104.2,2.2,104.2,3.6z
		"/>
	<path class="st1" d="M74.5,41.9c-0.2,0-0.4-0.1-0.5-0.3c0-0.1-0.1-0.2-0.2-0.2c-0.1,0,0,0.2-0.1,0.2c0,0.1,0,0.3-0.2,0.3
		c-0.4,0-0.8,0-1.2,0c-0.3,0-0.5-0.3-0.5-0.7c0-0.4,0.3-0.7,0.6-0.8c0.4-0.1,0.9-0.1,1.3,0c0.2,0.1,0.3,0,0.3-0.2
		c0.1-0.2-0.1-0.3-0.2-0.3c-0.4-0.1-0.8-0.1-1.2-0.1c-0.6,0.1-1.1,0.3-1.3,1c-0.2,0.6-0.1,1,0.3,1.3c-0.3,0.2-0.5,0.4-0.7,0.8
		c-0.2,0.6-0.3,1,0.2,1.4c0.3,0.3,0.7,0.2,1,0.2c1,0,1.6-0.6,1.8-1.7c0-0.3,0.1-0.6,0.4-0.5c0.2,0,0.2-0.2,0.2-0.3
		C74.7,41.9,74.6,41.9,74.5,41.9z M73.5,43.1c-0.2,0.8-1,1.2-1.7,0.9c-0.2-0.1-0.3-0.3-0.3-0.6c0-0.6,0.4-1.1,0.9-1.1
		c0.1,0,0.3,0,0.4,0H73C73.7,42.4,73.7,42.4,73.5,43.1z"/>
	<path class="st1" d="M79.6,44.5c-0.5,0.1-0.7,0-0.9-0.5c-0.2-0.5-0.4-1-0.7-1.5c-0.1-0.3,0-0.4,0.2-0.5c0.4-0.1,0.7-0.3,1-0.6
		c0.1-0.2,0.2-0.4,0.2-0.6c0-0.3-0.2-0.5-0.5-0.5c-0.4,0-0.8,0-1.1,0c-0.2,0-0.2,0.1-0.2,0.2c-0.2,1.2-0.4,2.4-0.6,3.7
		c-0.1,0.4-0.2,0.5-0.5,0.4c-0.1,0-0.1-0.1-0.1-0.1c0.3-1.5,0.5-3,0.8-4.5c0-0.1,0.1-0.2,0.2-0.2c0.7,0,1.4-0.1,2.2,0
		c0.8,0.1,0.7,1.1,0.3,1.7c-0.2,0.3-0.6,0.6-0.9,0.7c-0.3,0.1-0.2,0.2-0.1,0.5C79,43.3,79.3,43.9,79.6,44.5z"/>
	<path class="st1" d="M49.7,42.4c-0.8,0-1.6,0-2.4,0c-0.2,0-0.2,0.2-0.2,0.3c-0.1,0.5-0.2,0.9-0.3,1.4c-0.1,0.5-0.1,0.5-0.6,0.5
		c0.3-1.5,0.5-3.1,0.8-4.6c0.1-0.3,0.3-0.2,0.5-0.2c0.2,0,0.1,0.2,0.1,0.3c-0.1,0.5-0.2,1-0.3,1.5c0,0.2,0,0.3,0.2,0.3
		c0.7,0,1.4,0,2.1,0c0.2,0,0.2-0.1,0.3-0.2c0.1-0.5,0.2-1.1,0.3-1.6c0-0.2,0.1-0.2,0.6-0.2c-0.3,1.5-0.5,3-0.8,4.5
		c-0.1,0.3-0.3,0.3-0.5,0.2c-0.2,0-0.1-0.2-0.1-0.3C49.4,43.6,49.5,43,49.7,42.4z"/>
	<path class="st1" d="M59.3,41.1c-0.4,0.1-0.6,0.4-0.9,0.7c0-0.2,0-0.4,0-0.5c0-0.1,0.1-0.2,0-0.2c-0.1-0.1-0.5,0-0.5,0.2
		c-0.1,0.5-0.2,1-0.3,1.6c-0.2,0.9-0.3,1.8-0.5,2.6c0,0.1-0.1,0.3,0.1,0.3c0.2,0,0.4,0.1,0.5-0.2c0-0.1,0-0.2,0.1-0.3
		c0.1-0.7,0.1-0.7,0.7-0.7c0.6,0,1.1-0.2,1.5-0.8c0.3-0.5,0.4-1.1,0.4-1.7C60.4,41.3,60,40.9,59.3,41.1z M59.7,43.3
		c-0.2,0.6-0.6,0.8-1.2,0.8c-0.1,0-0.2,0-0.3,0c-0.2,0-0.3-0.1-0.2-0.4c0.1-0.3,0.1-0.6,0.2-0.9c0.1-0.7,0.5-1,1-1.2
		c0.4-0.1,0.7,0.1,0.7,0.6C59.9,42.6,59.8,42.9,59.7,43.3z"/>
	<path class="st1" d="M143.2,39.8c-0.1,0-0.1,0-0.1,0.1c0,0.3-0.1,0.5-0.1,0.8c0,0.2-0.1,0.4-0.3,0.3c-0.1,0-0.3,0-0.5,0
		c-0.6,0.1-1.1,0.3-1.4,0.9c-0.2,0.5-0.3,1-0.4,1.5c-0.1,0.5,0.3,1,0.6,1.1c0.4,0,0.7-0.1,1-0.3c0.1-0.1,0.2-0.3,0.4-0.4
		c0.1,0.2,0,0.3,0,0.5c0,0.1-0.1,0.3,0.1,0.2c0.1,0,0.3,0.2,0.4-0.1c0.2-1.4,0.5-2.8,0.7-4.2C143.7,39.8,143.6,39.7,143.2,39.8z
		 M142.8,41.7c-0.1,0.6-0.1,1.3-0.5,1.8c-0.2,0.3-0.5,0.5-0.9,0.5c-0.3,0-0.5-0.3-0.5-0.7c0-0.3,0.1-0.5,0.1-0.8
		c0.2-0.8,0.9-1.2,1.6-1C142.7,41.6,142.8,41.6,142.8,41.7z"/>
	<path class="st1" d="M123.3,44.5c0.1-0.8,0.3-1.6,0.4-2.4c0.1-0.7,0.3-1.5,0.4-2.2c0-0.1,0.1-0.2,0.2-0.2c0.7,0,1.4-0.1,2.1,0.1
		c0.6,0.2,0.8,0.6,0.6,1.2c-0.3,1-1,1.4-1.8,1.6c-0.3,0.1-0.3,0-0.3-0.3c0-0.1,0.1-0.1,0.2-0.2c0.3-0.1,0.6-0.2,0.8-0.3
		c0.4-0.3,0.6-0.8,0.5-1.2c-0.1-0.3-0.3-0.3-0.5-0.4c-0.4,0-0.8,0-1.1,0c-0.2,0-0.2,0.2-0.2,0.3c-0.2,1.2-0.4,2.4-0.6,3.6
		C123.9,44.6,123.9,44.6,123.3,44.5z"/>
	<path class="st1" d="M98.1,44.6c0.1-0.6,0.2-1.2,0.3-1.7c0.2-1,0.3-2,0.5-2.9c0.1-0.3,0.3-0.2,0.4-0.2c0.2,0,0.1,0.2,0.1,0.3
		c-0.1,0.6-0.2,1.2-0.3,1.8c0.3-0.1,0.3-0.3,0.5-0.4c0.3-0.3,0.7-0.4,1.1-0.4c0.5,0,0.7,0.4,0.6,0.9c-0.1,0.8-0.3,1.6-0.4,2.5
		c-0.1,0.3-0.3,0.2-0.5,0.2c-0.2,0-0.1-0.2-0.1-0.3c0.1-0.7,0.3-1.5,0.4-2.2c0-0.3-0.1-0.4-0.4-0.5c-0.7,0-1.3,0.6-1.5,1.5
		c-0.1,0.4-0.1,0.8-0.2,1.2C98.7,44.7,98.4,44.5,98.1,44.6z"/>
	<path class="st1" d="M92.6,41.1c-0.3,0-0.7-0.1-1-0.1c-0.5,0.1-1,0.2-1.4,0.8c-0.3,0.5-0.4,1.1-0.5,1.7c0,0.5,0.2,0.9,0.6,1
		c0.4,0.1,0.8,0,1.1-0.3c0.1-0.1,0.2-0.3,0.3-0.4c0,0,0.1,0.1,0.1,0.1c0,0.1,0,0.3,0,0.4c0,0.1-0.1,0.3,0.1,0.3
		c0.1,0,0.3,0.2,0.4-0.2c0.1-1,0.3-2,0.5-2.9C92.9,41.2,92.8,41.1,92.6,41.1z M92.2,42.1c-0.1,0.5-0.1,1-0.4,1.4
		c-0.2,0.2-0.4,0.4-0.7,0.5c-0.5,0.1-0.7-0.1-0.7-0.7c0-0.3,0.1-0.7,0.2-1c0.2-0.6,0.6-0.8,1.2-0.8C92.3,41.5,92.3,41.5,92.2,42.1z"
		/>
	<path class="st1" d="M67.3,41.1c-0.3,0-0.7-0.1-1-0.1c-0.6,0.1-1.1,0.3-1.4,0.9c-0.2,0.4-0.3,0.9-0.3,1.4c-0.1,0.8,0.3,1.4,1.1,1.1
		c0.4-0.1,0.5-0.4,0.8-0.7c0,0.2,0,0.3,0,0.5c0,0.1-0.1,0.3,0.1,0.3c0.1,0,0.3,0.2,0.4-0.2c0.2-1,0.3-2,0.5-2.9
		C67.5,41.2,67.5,41.1,67.3,41.1z M66.9,42c-0.1,0.3-0.1,0.6-0.2,0.9c-0.1,0.6-0.4,1-0.9,1.1c-0.5,0.1-0.7-0.1-0.7-0.6
		c0-0.4,0.1-0.8,0.2-1.1c0.2-0.5,0.6-0.7,1.1-0.7h0.2C66.9,41.5,67,41.6,66.9,42z"/>
	<path class="st1" d="M105.2,44.6c-0.4,0-0.8-0.1-1.2-0.3c-0.3-0.2-0.5-0.6-0.5-1c-0.1-0.8,0-1.6,0.5-2.4c0.4-0.7,1-1,1.7-1.1
		c0.5-0.1,0.9,0,1.4,0.1c0.3,0,0.2,0.3,0.2,0.4c0,0.2-0.2,0.1-0.3,0.1c-0.7-0.2-1.3-0.2-1.9,0.1c-0.7,0.4-1,1.1-1,1.9
		c0,0.3-0.1,0.7,0.1,1c0.1,0.3,0.4,0.5,0.6,0.6c0.5,0.2,1.1,0.1,1.6,0c0.1,0,0.2-0.1,0.3,0c0,0.2,0,0.4-0.2,0.4
		c-0.3,0.1-0.7,0.2-1,0.1C105.4,44.6,105.4,44.6,105.2,44.6z"/>
	<path class="st1" d="M89.2,41.3c-0.5-0.3-1.5-0.3-2,0.2c-0.4,0.5-0.6,1-0.6,1.6c-0.1,0.4,0,0.9,0.4,1.2c0.5,0.4,1.5,0.3,1.9-0.1
		C89,44,89,43.8,89,43.8c-0.1-0.1-0.2,0-0.3,0c-0.1,0-0.2,0.1-0.3,0.1c-0.4,0.1-0.7,0.2-1.1,0c-0.2-0.1-0.3-0.5-0.3-0.8
		c0.1-0.3,0.3-0.2,0.4-0.2c0.1,0,0.1,0,0.2,0c0.1,0,0.3,0,0.4,0c0.4-0.1,0.8-0.1,1.1-0.5C89.5,42.1,89.5,41.5,89.2,41.3z M88.6,42.4
		c-0.2,0.1-0.5,0.1-0.7,0.1h-0.4c-0.3,0-0.3,0-0.2-0.4c0.3-0.6,0.9-0.7,1.4-0.6c0.1,0.1,0.2,0.2,0.2,0.3
		C88.9,42.1,88.8,42.3,88.6,42.4z"/>
	<path class="st1" d="M110.2,41.2c-0.5-0.3-1.5-0.3-2,0.3c-0.4,0.5-0.6,1-0.6,1.6c-0.1,0.4,0,0.8,0.4,1.2c0.4,0.5,1.6,0.2,2-0.2
		c0.1-0.1,0.1-0.3,0.1-0.4c0-0.1-0.2,0-0.2,0c-0.3,0.2-0.5,0.3-0.8,0.3c-0.7,0-0.7-0.2-0.8-0.6c-0.1-0.3,0-0.4,0.3-0.4
		c0.4,0,0.8,0,1.1-0.1c0.5-0.1,0.9-0.5,0.9-1C110.5,41.7,110.5,41.4,110.2,41.2z M109.6,42.4c-0.2,0.1-0.5,0.1-0.8,0.1
		c-0.1,0-0.3,0-0.4,0c-0.2,0-0.2-0.1-0.2-0.3c0.2-0.7,0.9-0.8,1.4-0.7c0.2,0.1,0.2,0.2,0.2,0.4C109.9,42.2,109.8,42.3,109.6,42.4z"
		/>
	<path class="st1" d="M119.6,43c0.1,0,0.1,0,0.3,0c0.2,0,0.5,0,0.8-0.1c0.5-0.1,0.9-0.6,0.9-1.2c0-0.2-0.1-0.4-0.3-0.5
		c-0.5-0.3-1.5-0.3-2,0.3c-0.5,0.6-0.6,1.3-0.6,2c0,0.3,0.2,0.5,0.4,0.8c0.4,0.5,1.6,0.2,2-0.2c0.1-0.1,0.1-0.3,0.1-0.4
		c0-0.1-0.1,0-0.2,0.1c-0.1,0-0.2,0.1-0.3,0.2c-0.4,0.1-0.8,0.2-1.1,0c-0.2-0.2-0.3-0.5-0.2-0.7C119.2,42.9,119.4,43,119.6,43z
		 M119.4,42.2c0.3-0.6,0.9-0.7,1.4-0.6c0.1,0.1,0.2,0.2,0.2,0.3c0,0.2-0.1,0.4-0.3,0.5c-0.3,0.1-0.5,0.1-0.8,0.1h-0.3
		C119.3,42.5,119.2,42.5,119.4,42.2z"/>
	<path class="st1" d="M82.6,41.1c-0.4-0.1-0.9-0.1-1.3,0.1c-0.6,0.3-0.9,0.9-1,1.5c-0.1,0.5-0.1,0.9,0.1,1.4c0.4,0.6,1.8,0.7,2.2,0
		c0.1-0.1,0.1-0.3,0.1-0.4c-0.1-0.1-0.1,0-0.2,0.1c-0.1,0-0.2,0.1-0.3,0.2c-0.4,0.1-0.8,0.2-1.1,0c-0.2-0.2-0.3-0.4-0.3-0.7
		c0-0.3,0.3-0.2,0.4-0.2c0.1,0,0.1,0,0.2,0c0.1,0,0.3,0,0.4,0c0.4-0.1,0.8-0.1,1.1-0.5C83.3,42,83.2,41.3,82.6,41.1z M82.3,42.4
		c-0.3,0.1-0.5,0.1-0.8,0.1c-0.1,0-0.2,0-0.3,0c-0.1,0-0.3,0.1-0.3,0c-0.1-0.1,0.1-0.3,0.1-0.4c0.2-0.5,0.9-0.6,1.3-0.5
		c0.1,0.1,0.2,0.2,0.2,0.3C82.6,42.1,82.5,42.3,82.3,42.4z"/>
	<path class="st1" d="M53.5,41.2c-0.5-0.3-1.4-0.3-1.9,0.2c-0.5,0.6-0.7,1.3-0.7,2.1c0,0.2,0.1,0.5,0.3,0.7c0.6,0.5,1.2,0.3,1.7,0
		c0.7-0.4,0.9-1.2,0.9-1.8C53.9,41.7,53.8,41.4,53.5,41.2z M53.4,42.3c0,0.5-0.1,0.9-0.3,1.2C52.9,44,52.4,44.2,52,44
		c-0.3-0.1-0.4-0.3-0.5-0.6c-0.1-0.6,0-1.1,0.3-1.6c0.3-0.5,0.8-0.5,1.1-0.4C53.3,41.7,53.4,42,53.4,42.3z"/>
	<path class="st1" d="M110.7,44.6c0.1-0.7,0.3-1.4,0.4-2.1c0.1-0.4,0.1-0.8,0.2-1.2c0-0.2,0.3-0.3,0.5-0.2c0.1,0,0.1,0.1,0,0.1
		c-0.1,0.2,0,0.4-0.1,0.5c0,0.1-0.1,0.2,0,0.2c0.1,0,0.1-0.1,0.2-0.1c0.3-0.5,0.7-0.8,1.3-0.8c0.5,0,0.8,0.4,0.7,1
		c-0.1,0.8-0.3,1.5-0.4,2.3c-0.1,0.4-0.3,0.3-0.5,0.2c-0.2,0-0.1-0.2,0-0.3c0.1-0.7,0.3-1.4,0.4-2.2c0-0.3-0.1-0.5-0.3-0.5
		c-0.7,0-1.3,0.6-1.5,1.4c-0.1,0.4-0.1,0.8-0.2,1.2c0,0.3-0.1,0.4-0.4,0.4C110.9,44.5,110.8,44.6,110.7,44.6z"/>
	<path class="st1" d="M84.6,43.1c-0.3,0-0.5,0-0.8-0.2c-0.5-0.4-0.1-1.5,0.4-1.7c0.6-0.2,1.2-0.2,1.8,0c0.2,0,0.2,0.1,0.2,0.3
		c0,0.2-0.2,0.3-0.3,0.2c-0.3-0.1-0.6-0.1-0.8-0.1c-0.2,0-0.3,0-0.5,0.1c-0.3,0.1-0.4,0.3-0.3,0.6c0,0.3,0.2,0.3,0.4,0.3
		c0.2,0,0.5,0,0.7,0c0.7,0.2,0.8,0.9,0.4,1.5c-0.3,0.3-0.6,0.4-1,0.5c-0.4,0.1-0.8,0-1.1-0.1c-0.3-0.1-0.2-0.3-0.2-0.5
		c0-0.2,0.2-0.1,0.3-0.1c0.4,0.1,0.7,0.1,1.1,0.1c0.3,0,0.6-0.4,0.6-0.6c0-0.3-0.2-0.4-0.6-0.4C84.7,43.1,84.7,43.1,84.6,43.1z"/>
	<path class="st1" d="M55.5,43.1c-0.3,0-0.5,0.1-0.7-0.2c-0.5-0.5-0.2-1.5,0.4-1.7c0.6-0.2,1.2-0.2,1.7-0.1c0.2,0,0.2,0.1,0.2,0.3
		c0,0.2-0.2,0.2-0.3,0.2c-0.3-0.1-0.5-0.1-0.8-0.1c-0.2,0-0.3,0-0.5,0.1c-0.3,0.1-0.4,0.3-0.4,0.6c0,0.3,0.3,0.3,0.5,0.3
		c0.2,0,0.5,0,0.7,0c0.7,0.1,0.7,1,0.4,1.4c-0.3,0.4-0.7,0.5-1.2,0.5c-0.3,0-0.6,0-0.9-0.1c-0.3-0.1-0.3-0.3-0.2-0.5
		c0.1-0.3,0.2-0.1,0.3,0c0.4,0.1,0.7,0.1,1.1,0.1c0.3,0,0.6-0.4,0.6-0.6c0-0.3-0.2-0.4-0.6-0.4C55.6,43.1,55.6,43.1,55.5,43.1z"/>
	<path class="st1" d="M136.2,44.6c-0.4,0-0.8,0-1.2,0c-0.1,0-0.2,0.1-0.2-0.2c0.3-1.5,0.5-2.9,0.8-4.4c0.1-0.3,0.3-0.2,0.5-0.2
		c0.2,0,0.1,0.2,0.1,0.3c-0.2,1.2-0.4,2.4-0.7,3.7c0,0.2,0,0.4,0.3,0.4c0.6,0,1.1,0,1.7,0c0.1,0,0.3-0.1,0.2,0.1
		c0,0.1,0,0.4-0.3,0.4C137,44.5,136.6,44.6,136.2,44.6z"/>
	<path class="st1" d="M127.2,41.1c0.6-0.1,0.6-0.1,0.7,0.6c0.1,0.6,0.2,1.3,0.3,1.9c0,0.1,0.1,0.1,0.1,0.2c0.3-0.6,0.6-1.2,0.9-1.8
		c0.1-0.2,0.2-0.3,0.2-0.5c0.1-0.5,0.4-0.5,0.8-0.4c-0.3,0.6-0.7,1.2-1,1.9c-0.3,0.5-0.5,0.9-0.8,1.4c-0.1,0.3-0.3,0.2-0.5,0.2
		c-0.2,0-0.2-0.2-0.2-0.3c-0.1-0.7-0.2-1.4-0.3-2.1C127.4,41.8,127.3,41.4,127.2,41.1z"/>
	<path class="st1" d="M98,41.1c-0.1,0.5-0.1,0.5-0.5,0.4c-1-0.1-1.5,0.3-1.6,1.5c0,0.2,0,0.4,0,0.6c0.1,0.3,0.4,0.5,0.7,0.4
		c0.3,0,0.6-0.1,0.8-0.3c0.1-0.1,0.1,0,0.1,0.1c0,0.1-0.1,0.3-0.2,0.3c-0.4,0.3-0.9,0.4-1.4,0.3c-0.4-0.1-0.6-0.4-0.6-0.8
		c0-0.8,0-1.5,0.6-2.1c0.5-0.6,1.1-0.6,1.7-0.5C97.8,41.1,97.9,41.1,98,41.1z"/>
	<path class="st1" d="M131,44.6c-0.5,0-0.8-0.2-0.8-0.7c0-0.3,0.1-0.6,0.1-0.9c0.1-0.8,0.3-1.5,0.4-2.3c0-0.2,0.1-0.2,0.2-0.2
		c0.2,0,0.2,0.1,0.1,0.2c0,0.3,0.1,0.4,0.3,0.3c0.1,0,0.2,0,0.2,0c0.1,0,0.3-0.1,0.3,0.1c0,0.2,0,0.4-0.3,0.4c-0.5,0-0.5,0-0.6,0.6
		c-0.1,0.5-0.2,1-0.3,1.5c-0.1,0.3,0,0.4,0.3,0.5c0.1,0,0.3-0.2,0.3,0.2c0,0.3-0.2,0.3-0.4,0.3C131,44.6,131,44.6,131,44.6z"/>
	<path class="st1" d="M139.1,44.6c-0.5,0-0.8-0.2-0.8-0.7c0-0.3,0.1-0.6,0.1-0.9c0.1-0.8,0.3-1.5,0.4-2.3c0-0.2,0.1-0.2,0.2-0.2
		c0.2,0,0.2,0.2,0.1,0.3c0,0.3,0.1,0.3,0.3,0.3c0.1,0,0.2,0,0.3,0c0.1,0,0.3-0.1,0.3,0.1c0,0.2,0,0.4-0.3,0.4c-0.5,0-0.5,0-0.6,0.6
		c-0.1,0.5-0.2,1-0.3,1.5c0,0.3,0,0.4,0.3,0.4c0.1,0,0.4-0.2,0.4,0.2C139.6,44.6,139.3,44.6,139.1,44.6
		C139.1,44.6,139.1,44.6,139.1,44.6z"/>
	<path class="st1" d="M64.3,41c0,0.4-0.2,0.6-0.5,0.5c-0.3-0.1-0.4,0.1-0.4,0.4c-0.1,0.6-0.2,1.1-0.3,1.7c0,0.3,0.1,0.4,0.4,0.4
		c0.1,0,0.3-0.1,0.3,0.2c0,0.2-0.1,0.4-0.3,0.3c-0.1,0-0.2,0-0.3,0c-0.3,0-0.6-0.3-0.5-0.8c0.1-0.8,0.3-1.5,0.4-2.3
		c0-0.3,0.1-0.5,0.1-0.8c0-0.2,0.1-0.2,0.3-0.2c0.2,0,0.1,0.1,0.1,0.2c0,0.3,0.1,0.4,0.3,0.4C64,41,64.1,41,64.3,41z"/>
	<path class="st1" d="M115.2,44.6c-0.6,0.1-0.8-0.4-0.7-1.2c0.2-0.9,0.3-1.8,0.5-2.7c0-0.2,0.1-0.2,0.2-0.2c0.2,0,0.1,0.1,0.1,0.2
		c0,0.3,0.1,0.4,0.3,0.3c0.1,0,0.2,0,0.3,0c0.1,0,0.3-0.1,0.3,0.1c0,0.2,0,0.4-0.3,0.4c-0.5,0-0.5,0-0.6,0.6c-0.1,0.5-0.2,1-0.3,1.5
		c-0.1,0.3,0,0.4,0.3,0.5c0.1,0,0.4-0.2,0.4,0.2C115.7,44.6,115.5,44.6,115.2,44.6C115.3,44.6,115.3,44.6,115.2,44.6z"/>
	<path class="st1" d="M69.3,39.8c-0.2,1.2-0.4,2.3-0.6,3.4c-0.1,0.4-0.1,0.8-0.2,1.1c-0.1,0.3-0.3,0.2-0.5,0.2
		c-0.1,0-0.1-0.2-0.1-0.3c0.2-1,0.4-2,0.5-3c0.1-0.4,0.1-0.8,0.2-1.2c0-0.2,0.1-0.4,0.4-0.3C69.1,39.8,69.2,39.8,69.3,39.8z"/>
	<path class="st0" d="M19.2,43c-0.1,0-0.3,0-0.4,0c-0.4,0-0.6-0.3-0.6-0.7c0-0.1,0-0.2,0.1-0.2c0.1,0,0.2,0,0.2,0.2
		c0,0.5,0.3,0.5,0.5,0.5c0.2,0,0.4,0,0.6-0.1C20,42.6,20,42.3,20,42c0-0.3-0.1-0.4-0.4-0.5c-0.3,0-0.5,0-0.8-0.1
		c-0.4-0.1-0.5-0.4-0.5-0.7c-0.1-0.3,0-0.6,0.2-0.8c0-0.1,0.1-0.1,0.2-0.1c0.3-0.1,0.7-0.1,1.1-0.1c0.4,0,0.5,0.2,0.6,0.6
		c0,0.1,0.1,0.2-0.1,0.2c-0.1,0-0.2,0-0.2-0.1c0-0.4-0.3-0.4-0.5-0.4c-0.1,0-0.2,0-0.3,0c-0.5,0-0.7,0.3-0.5,0.8
		c0.1,0.3,0.3,0.3,0.5,0.3c0.3,0,0.5,0,0.7,0.1c0.3,0.1,0.4,0.2,0.5,0.6C20.3,42.9,20.2,43,19.2,43z"/>
	<path class="st1" d="M117.4,42c0.3-0.4,0.5-0.7,0.9-0.9c0.1,0,0.3-0.1,0.3,0c0,0.2,0.1,0.4-0.2,0.5c-0.9,0.2-1.1,1-1.3,1.8
		c0,0.3-0.1,0.6-0.1,0.8c0,0.2-0.1,0.4-0.3,0.3c-0.1,0-0.2,0-0.3,0c0.1-0.8,0.3-1.6,0.4-2.4c0-0.3,0.1-0.6,0.1-0.8
		c0-0.2,0.3-0.3,0.5-0.2c0.1,0,0.1,0.1,0,0.2C117.4,41.5,117.4,41.7,117.4,42z"/>
	<path class="st1" d="M94.2,42c0.3-0.5,0.6-0.9,1.2-0.9c0,0.4-0.2,0.5-0.5,0.6c-0.5,0.2-0.8,0.8-1,1.4c-0.1,0.4-0.2,0.9-0.2,1.3
		c-0.1,0.4-0.3,0.2-0.5,0.2c-0.2,0,0-0.2,0-0.2c0.2-1,0.3-2,0.5-3c0-0.2,0.3-0.4,0.5-0.3c0.1,0,0,0.1,0,0.2
		C94.2,41.5,94.1,41.7,94.2,42C94.1,42,94.2,42,94.2,42z"/>
	<path class="st0" d="M22.4,43c0-0.4,0-0.9,0-1.3c0-0.2-0.1-0.3-0.2-0.3c-0.4,0-0.8,0-1.1,0c-0.2,0-0.2,0-0.2,0.3c0,0.3,0,0.7,0,1
		c0,0.2,0,0.3-0.2,0.3c-0.2,0-0.1-0.2-0.1-0.3c0-0.9,0-1.8,0-2.6c0-0.1-0.1-0.3,0.2-0.3c0.2,0,0.1,0.2,0.1,0.3c0,0.3,0,0.6,0,0.8
		c0,0.2,0,0.3,0.2,0.3c0.4,0,0.8,0,1.2,0c0.1,0,0.2,0,0.2-0.2c0-0.3,0-0.7,0-1c0-0.1,0-0.2,0.1-0.2c0.1,0,0.2,0.1,0.2,0.2
		c0,0.9,0,1.9,0,2.8C22.7,43,22.5,42.9,22.4,43z"/>
	<path class="st0" d="M25.4,41.3c0-0.3,0-0.5,0-0.8c0-0.4,0.2-0.6,0.5-0.7c0.4-0.1,0.7-0.1,1.1-0.1c0.4,0,0.6,0.4,0.5,0.8
		c0,0.1-0.1,0.1-0.1,0.1c-0.1,0-0.1,0-0.1-0.1c-0.1-0.6-0.1-0.6-0.6-0.6c-0.9,0-0.9,0.1-0.9,1.1c0,0.4,0,0.7,0,1.1
		c0,0.3,0.1,0.5,0.4,0.5c0.3,0,0.6,0,0.8,0c0.3,0,0.3-0.3,0.3-0.5c0-0.1,0-0.3,0.1-0.3c0.2,0,0.1,0.2,0.1,0.3c0,0.6-0.2,0.8-0.7,0.8
		c-0.3,0-0.6,0-0.8,0c-0.4,0-0.6-0.2-0.6-0.7c0,0,0-0.1,0-0.1C25.4,41.8,25.4,41.6,25.4,41.3C25.4,41.3,25.4,41.3,25.4,41.3z"/>
	<path class="st0" d="M24.7,41.5c0.5-0.2,0.3-0.7,0.4-1.1c0-0.3-0.1-0.5-0.5-0.6c-0.4-0.1-0.9,0-1.3-0.1c-0.2,0-0.4,0-0.4,0.3
		c0,0.8-0.1,1.7,0,2.6c0,0.1,0,0.3,0.2,0.3c0.1,0,0.2-0.1,0.2-0.3c0-0.3-0.1-0.8,0.1-1c0.2-0.2,0.6-0.1,0.9-0.1
		c0.3,0,0.4,0.1,0.5,0.5c0,0.2,0,0.4,0,0.6c0,0.1,0,0.2,0.1,0.2c0.1,0,0.1,0,0.2-0.1C25.2,42.5,25,41.7,24.7,41.5z M23.1,41.1
		c0-0.1,0-0.1,0-0.2c0-0.9,0-0.9,0.8-0.9c0.1,0,0.1,0,0.2,0c0.2,0,0.4,0,0.5,0.1c0,0,0,0,0.1,0c0.2,0.1,0.2,0.4,0.1,0.8
		c0,0.3-0.2,0.4-0.5,0.4c-0.3,0-0.6,0-0.9,0c-0.1,0-0.1,0-0.1,0C23.2,41.3,23.1,41.2,23.1,41.1z"/>
	<path class="st1" d="M15.3,45.2c0.2-0.1,0.4-0.1,0.6-0.1c0.1,0,0.2-0.1,0.2,0.1c0,0.1-0.1,0.2-0.1,0.2c-0.2,0.2-0.5,0.3-0.7,0.6
		c-0.1,0.1-0.2,0.2-0.1,0.3c0.1,0.1,0.2,0,0.3,0c0.1-0.1,0.3-0.2,0.4-0.3c0,0,0.1-0.1,0.2,0c0,0.1,0,0.1,0,0.2
		c-0.3,0.2-0.5,0.4-0.9,0.5c-0.1,0-0.2,0-0.3-0.1c-0.1-0.1,0-0.2,0-0.3c0.2-0.3,0.4-0.5,0.6-0.7c-0.2-0.1-0.4,0-0.5,0.2
		c-0.3,0.2-0.5,0.4-0.7,0.6c-0.1,0.1-0.1,0.1-0.2,0.1c-0.1-0.1,0-0.1,0.1-0.2c0.5-0.8,1.2-1.4,1.9-2.1c0.2-0.2,0.4-0.4,0.6-0.6
		c0.1-0.1,0.2-0.1,0.3,0c0.1,0.1,0,0.2-0.1,0.3c-0.4,0.3-0.8,0.7-1.2,1.1C15.4,45,15.3,45,15.3,45.2z"/>
	<path class="st1" d="M62,41c-0.2,1.1-0.4,2.1-0.6,3.2c-0.1,0.4-0.1,0.4-0.6,0.3c0.2-1.1,0.4-2.1,0.5-3.2C61.5,40.9,61.8,41.1,62,41
		z"/>
	<path class="st1" d="M27.2,45.9c0-0.1,0-0.2,0-0.3c0.1-0.4,0.3-0.9,0.4-1.3c0-0.1,0.2-0.4,0-0.5c-0.2-0.1-0.2,0.2-0.2,0.4
		c-0.4,1.2-0.6,2.4-0.8,3.6c0,0.1,0,0.1,0.1,0.2c0.1,0,0.1,0,0.1-0.1c0-0.1,0-0.1,0.1-0.1c0.3,0.1,0.5-0.1,0.6-0.3
		c0.2-0.3,0.3-0.7,0.4-1.1C27.9,45.8,27.8,45.6,27.2,45.9z M27.3,47.4c-0.1,0.1-0.2,0.2-0.3,0.2c-0.2-0.1-0.1-0.2-0.1-0.4
		c0.1-0.4,0.2-0.7,0.4-1c0.1-0.1,0.1-0.2,0.2-0.1c0.1,0,0.1,0.1,0.1,0.2C27.6,46.7,27.5,47.1,27.3,47.4z"/>
	<path class="st1" d="M19.1,46.2c-0.1-0.3-0.3-0.1-0.5-0.2c0-0.1,0.1-0.1,0.1-0.2c0-0.1,0.1-0.2,0-0.2c-0.1-0.1-0.2,0-0.2,0.1
		c-0.1,0.2-0.2,0.3-0.4,0.5c-0.7,0.8-1.2,1.7-1.8,2.5c-0.1,0.2-0.3,0.3-0.2,0.6c0.1-0.1,0.2-0.2,0.3-0.3c0.3-0.4,0.5-0.8,0.8-1.2
		c0.1-0.1,0.2-0.3,0.4-0.1c0.1,0.1,0.2,0,0.4,0c0.3-0.2,0.6-0.4,0.9-0.8C19,46.6,19.2,46.4,19.1,46.2z M18.7,46.6
		c-0.2,0.4-0.5,0.7-0.8,0.8c-0.1,0-0.2,0-0.3-0.1c-0.1-0.1,0-0.1,0.1-0.2c0.2-0.3,0.4-0.6,0.8-0.8c0.1,0,0.2-0.1,0.3,0
		C18.9,46.4,18.8,46.5,18.7,46.6z"/>
	<path class="st1" d="M24.2,47c0.1-0.2,0.3-0.2,0.4-0.3c0.1-0.1,0.1-0.1,0.1-0.2c0-0.2-0.1-0.1-0.2-0.1c-0.2,0-0.4,0.1-0.5,0.3
		c-0.1,0.2-0.1,0.4,0,0.6c0.1,0.1,0.1,0.2,0.2,0.3c0.1,0.3,0.1,0.5-0.1,0.7c-0.2,0.2-0.6,0.2-0.7,0c-0.2-0.2-0.2-0.7,0-0.9
		c0,0,0.1,0,0.1,0c0.1,0,0,0.1,0,0.1c0,0.1,0,0.2,0,0.3c0,0.2,0.1,0.3,0.2,0.3c0.1,0.1,0.3,0,0.3-0.1c0.1-0.1,0-0.3,0-0.4
		c0-0.1-0.1-0.2-0.2-0.2c-0.3-0.5-0.1-0.9,0.4-1.2c0.2-0.1,0.5-0.2,0.6,0c0.1,0.1,0,0.3,0,0.5C24.7,46.9,24.4,47,24.2,47z"/>
	<path class="st1" d="M32.1,44.7c-0.2,0.3-0.2,0.6-0.2,0.9c0,0.1,0,0.2,0,0.2c0,0.1,0,0.2-0.1,0.2c-0.1,0-0.1-0.1-0.1-0.2
		c0-0.6,0-1.1,0-1.7c0-0.1,0-0.1,0.1-0.1c0.1,0,0.1,0,0.1,0.1c0,0.1,0,0.2,0,0.3c0.2-0.2,0.2-0.4,0.3-0.6c0.1-0.1,0.1-0.2,0.3-0.2
		c0.1,0.1,0.1,0.2,0,0.3c-0.1,0.3-0.1,0.6-0.1,1c0,0.3,0.1,0.5,0.3,0.7c0,0,0.2,0.1,0.1,0.2c-0.1,0.1-0.2,0.1-0.3,0
		c-0.2-0.3-0.4-0.6-0.4-0.9C32.1,44.9,32.1,44.8,32.1,44.7z"/>
	<path class="st1" d="M29.9,47.1c-0.1-0.6-0.1-1.3,0-1.9c0-0.1,0-0.2,0.1-0.2c0.1,0,0.1-0.1,0.1-0.1c0.1,0,0,0.1,0,0.2
		c0,0.1,0,0.2,0,0.4c0.2-0.3,0.3-0.5,0.4-0.7c0.1-0.1,0.1-0.3,0.3-0.2c0.1,0.1,0,0.2,0,0.3c0,0.1-0.2,0.3-0.1,0.5
		c0.1-0.1,0.3-0.2,0.3-0.4c0-0.1,0.1-0.1,0.1-0.1c0,0,0,0.1,0,0.1c-0.1,0.3-0.2,0.5-0.5,0.6c0,0-0.1,0-0.2,0
		c-0.4-0.3-0.3,0.1-0.3,0.3c-0.1,0.3-0.1,0.7-0.2,1C30,47,30,47.1,29.9,47.1z"/>
	<path class="st1" d="M20.7,47.2c-0.1-0.1-0.2,0-0.2,0.1c-0.2,0.2-0.5,0.5-0.8,0.4c-0.1,0-0.3,0-0.3-0.2c0-0.2,0.1-0.2,0.2-0.2
		c0.3-0.1,0.6-0.3,0.8-0.6c0.1-0.1,0.2-0.2,0.1-0.4c-0.1-0.2-0.2-0.2-0.4-0.1c-0.5,0.2-0.8,0.6-1,1.1C19,47.7,19.2,48,19.6,48
		c0.3-0.1,0.7-0.3,1-0.6C20.6,47.3,20.7,47.3,20.7,47.2z M20.1,46.5c0.1,0,0.1,0,0.1,0c0.1,0.1,0,0.1,0,0.2
		c-0.2,0.3-0.4,0.4-0.7,0.5C19.6,46.8,19.8,46.6,20.1,46.5z"/>
	<path class="st1" d="M17.4,45.5c-0.7,0.1-1.1,0.5-1.4,1.1c-0.2,0.4-0.1,0.5,0.3,0.5c0,0,0.1,0,0.1,0c0.5-0.3,0.9-0.7,1.1-1.3
		C17.7,45.6,17.6,45.5,17.4,45.5z M17.2,46.2c-0.1,0.1-0.3,0.2-0.3,0.4c0,0.1-0.1,0.1-0.2,0.2c-0.1,0.1-0.3,0.2-0.4,0.1
		c-0.1-0.1,0-0.3,0.1-0.4c0.2-0.3,0.4-0.5,0.7-0.7c0.1,0,0.2-0.1,0.3,0C17.4,46,17.2,46.1,17.2,46.2z"/>
	<path class="st1" d="M29.3,45.4c0-0.3-0.3-0.3-0.5-0.1c-0.3,0.4-0.5,0.8-0.5,1.4c0,0,0,0.1,0,0.3c0,0.2,0.1,0.3,0.2,0.4
		c0.2,0.1,0.3,0,0.4-0.2C29.3,46.6,29.4,46,29.3,45.4z M29.1,45.7C29,46,29,46.3,29,46.7c0,0.2-0.1,0.4-0.3,0.3
		c-0.2,0-0.1-0.3-0.1-0.4c0-0.4,0.1-0.7,0.3-1c0-0.1,0.1-0.1,0.2-0.1C29.1,45.5,29.1,45.6,29.1,45.7z"/>
	<path class="st1" d="M23.3,46.5c0,0.1,0,0.1,0,0.1c-0.3,0.5-0.5,1-0.7,1.6c0,0.1-0.1,0.2-0.2,0.2c-0.1,0-0.1-0.2,0-0.2
		c0.2-0.6,0.4-1.1,0.7-1.6C23.1,46.4,23.2,46.4,23.3,46.5C23.3,46.4,23.3,46.5,23.3,46.5z"/>
	<path class="st1" d="M132.6,44c0,0.2,0,0.3-0.1,0.4c-0.1,0.3-0.3,0.1-0.4,0.1c-0.1,0-0.1-0.1-0.1-0.3C132,43.8,132.3,44,132.6,44z"
		/>
	<path class="st1" d="M144,44c0,0.1,0.3-0.2,0.2,0.1c0,0.2,0,0.5-0.3,0.4c-0.1,0-0.3,0.1-0.3-0.2C143.6,44.2,143.6,43.9,144,44z"/>
	<path class="st1" d="M61.6,40.3c0-0.1,0.1-0.2,0.1-0.3c0-0.2,0.3-0.4,0.5-0.3c0.1,0.1,0.1,0.2,0,0.2c-0.1,0.1,0,0.3-0.2,0.3
		C61.9,40.3,61.8,40.3,61.6,40.3z"/>
	<path class="st1" d="M23.8,45.4c0,0.2-0.1,0.3-0.3,0.3c-0.1,0-0.1-0.1-0.1-0.2c0.1-0.2,0.1-0.4,0.3-0.4
		C23.9,45.2,23.8,45.3,23.8,45.4z"/>
	<path class="st0" d="M14.3,36.8c0.1,0,0,0.1,0.1,0.3C14.3,36.9,14.3,36.9,14.3,36.8L14.3,36.8z"/>
	<path class="st0" d="M31.4,36.9c0,0,0,0.1,0,0.1c0,0,0,0,0,0C31.3,36.9,31.3,36.9,31.4,36.9L31.4,36.9z"/>
	<path class="st2" d="M29.1,25.2c-0.3-0.4-0.7-0.8-1.1-1.3c-0.5-0.6-0.7-1.3-0.6-2.1c0.2-1-0.2-1.8-0.9-2.4
		c-0.1-0.1-0.1-0.2-0.2-0.2c-0.6-0.8-1.4-1.3-2.3-1.4c-1.5-0.1-2.8,0.5-3.7,1.8c-1.4,1.9-2,4.2-2,6.6c0,0.9,0,1.8,0,2.6
		c0,0.8-0.2,1.5-0.9,1.9c0.6,0,1.1-0.3,1.3-1c0.8,2.3,2.8,3.6,4.3,3.6c-0.2-0.3-0.5-0.4-0.7-0.6c1.4-0.2,1.9-0.8,1.5-1.6
		c0,0.7-0.3,1.1-0.9,1.2c-0.3,0-0.6-0.1-0.8-0.2c-0.8-0.5-1.4-1.3-1.7-2.2c-0.6-1.5-0.5-3-0.1-4.5c0.2-1,0.6-1.9,1.3-2.6
		c0,0,0,0.1,0.1,0.1c-0.4,0.6-0.7,1.3-0.9,2c-0.3,0.9-0.3,2-0.1,2.6c0-0.1,0-0.3,0-0.4c0-1.2,0.3-2.3,1.1-3.1
		c0.7-0.7,1.6-1.2,2.5-1.4c0.8-0.2,1.4-0.7,1.8-1.5c0-0.1,0.1-0.2,0.1-0.2c0.5,0.6,0.5,1.4,0,2.1c-0.3,0.3-0.4,0.7-0.3,1.2
		c0.1,0.5,0.1,0.5-0.4,0.5c0,0,0,0,0,0c0,0,0,0,0,0c0,0.1,0,0.2,0,0.3c0.5-0.3,1-0.4,1.6-0.3c0.7,0.2,1.1,0.7,1.4,1.4
		c0.2,0.7,0.1,1.4-0.5,1.8c-0.5,0.4-0.5,0.9-0.4,1.4c0.1,0.9-0.1,1.7-0.7,2.4c-0.2,0.2-0.4,0.5-0.6,0.7c0.1,0,0.2,0,0.2,0
		c1.4-1.1,2.6-2.5,3-4.5C29.9,27,29.8,26.1,29.1,25.2z M25.6,29.1c-0.3,0-0.6,0-0.6-0.3c-0.1-0.3-0.4-0.7-0.2-1.1c0,0,0-0.1,0-0.1
		c-0.2-0.2-0.1-0.3,0.1-0.4c0.3-0.1,0.3-0.4,0.3-0.7c-0.1-0.2-0.1-0.5,0-0.7c0.1-0.3,0-0.5-0.3-0.5c0,0.1,0,0.2,0,0.2
		c-0.1,0.5-0.3,0.6-0.7,0.3c-0.3-0.2-0.6-0.5-0.8-0.7c-0.1-0.2-0.3-0.1-0.4,0c-0.3,0.3-0.2,0.7-0.1,1.1c0.1,0.7,0.5,1.1,0.9,1.5
		c0.6,0.5,1.1,1.1,1.1,2.1c0.3-0.4,0.7-0.6,1.1-0.8C25.8,29.1,25.7,29.1,25.6,29.1z"/>
	<path class="st2" d="M24.8,41c0,0.3-0.2,0.4-0.5,0.4c-0.3,0-0.6,0-0.9,0c-0.1,0-0.1,0-0.2,0c0,0,0.1,0,0.1,0c0.3,0,0.6,0,0.9,0
		C24.6,41.4,24.8,41.3,24.8,41c0-0.5,0-0.7-0.2-0.8C24.9,40.3,24.9,40.5,24.8,41z"/>
	<path class="st0" d="M21.6,23c-0.7,0.7-1.1,1.6-1.3,2.6c-0.3,1.5-0.4,3,0.1,4.5c0.4,0.9,0.9,1.7,1.7,2.2c0.3,0.2,0.5,0.3,0.8,0.2
		c0.6-0.1,0.9-0.5,0.9-1.2c0.4,0.8-0.1,1.3-1.5,1.6c0.3,0.2,0.5,0.3,0.7,0.6c-1.6-0.1-3.5-1.3-4.3-3.6c-0.2,0.7-0.6,0.9-1.3,1
		c0.7-0.5,0.9-1.1,0.9-1.9c0-0.9,0-1.8,0-2.6c0-2.5,0.6-4.7,2-6.6c1-1.3,2.2-2,3.7-1.8c0.9,0.1,1.7,0.6,2.3,1.4
		c0.1,0.1,0.1,0.2,0.2,0.2c0.7,0.6,1.1,1.3,0.9,2.4c-0.1,0.8,0.1,1.5,0.6,2.1c0.3,0.4,0.7,0.8,1.1,1.3c0.7,0.8,0.8,1.8,0.5,2.8
		c-0.5,2-1.6,3.3-3,4.4c-0.1,0-0.1,0.1-0.2,0c0.2-0.2,0.4-0.5,0.6-0.7c0.6-0.7,0.8-1.5,0.7-2.4c-0.1-0.5,0-1,0.4-1.4
		c0.5-0.5,0.7-1.1,0.5-1.8c-0.2-0.8-0.7-1.2-1.4-1.4c-0.6-0.1-1.1,0-1.6,0.2c0-0.1,0-0.2,0-0.3l0,0c0.5,0,0.5,0,0.4-0.5
		c-0.1-0.4,0.1-0.8,0.3-1.2c0.5-0.7,0.5-1.5,0-2.1c0,0.1-0.1,0.2-0.1,0.2c-0.4,0.8-1,1.3-1.8,1.5c-1,0.2-1.8,0.7-2.5,1.4
		c-0.8,0.8-1.2,1.9-1.1,3.1c0,0.2,0,0.3,0,0.4c-0.2-0.6-0.2-1.7,0.1-2.6C20.9,24.4,21.3,23.7,21.6,23c0.1,0,0.1,0,0.1-0.1
		c0,0,0,0,0-0.1c0,0,0,0-0.1,0C21.7,23,21.6,23,21.6,23z"/>
	<path class="st0" d="M26,29.1c-0.4,0.2-0.8,0.5-1.1,0.8c0-1-0.6-1.6-1.1-2.1c-0.4-0.4-0.8-0.8-0.9-1.5c-0.1-0.4-0.1-0.8,0.1-1.1
		c0.1-0.2,0.2-0.2,0.4,0c0.2,0.3,0.5,0.5,0.8,0.7c0.4,0.3,0.6,0.2,0.7-0.3c0-0.1,0-0.2,0-0.2c0.3,0,0.4,0.2,0.3,0.5
		c-0.1,0.2-0.1,0.4,0,0.7c0.1,0.3,0,0.5-0.3,0.7c-0.2,0.1-0.3,0.2-0.1,0.4c0,0,0,0.1,0,0.1c-0.2,0.4,0.1,0.7,0.2,1.1
		c0.1,0.3,0.4,0.3,0.6,0.3C25.7,29.1,25.8,29.1,26,29.1z"/>
	<path class="st0" d="M25.5,24.7C25.5,24.7,25.5,24.7,25.5,24.7C25.5,24.7,25.5,24.7,25.5,24.7L25.5,24.7z"/>
	<path class="st2" d="M21.7,23c0,0.1,0,0.1-0.1,0.1c0,0,0,0-0.1-0.1C21.6,23,21.7,23,21.7,23L21.7,23z"/>
	<path class="st2" d="M21.7,23C21.7,22.9,21.7,22.9,21.7,23C21.7,22.9,21.7,23,21.7,23C21.7,23,21.7,23,21.7,23z"/>
</g>
</svg>
